<?xml version="1.0" standalone="no"?><!DOCTYPE svg PUBLIC "-//W3C//DTD SVG 1.1//EN" "http://www.w3.org/Graphics/SVG/1.1/DTD/svg11.dtd"><svg t="1571592281468" class="icon" viewBox="0 0 1024 1024" version="1.1" xmlns="http://www.w3.org/2000/svg" p-id="8479" xmlns:xlink="http://www.w3.org/1999/xlink" width="16" height="16"><defs><style type="text/css"></style></defs><path d="M754.688 476.16h-481.28c-12.288 0-21.504 10.24-21.504 21.504 0 12.288 10.24 21.504 21.504 21.504h481.28c12.288 0 21.504-10.24 21.504-21.504 0-12.288-10.24-21.504-21.504-21.504z m-22.528-153.6h218.112L666.624 38.912v218.112c0 35.84 29.696 65.536 65.536 65.536z m-21.504-196.608l152.576 152.576H745.472c-19.456 0-34.816-15.36-34.816-34.816V125.952z m44.032 524.288h-481.28c-12.288 0-21.504 10.24-21.504 21.504s10.24 21.504 21.504 21.504h481.28c12.288 0 21.504-10.24 21.504-21.504s-10.24-21.504-21.504-21.504z m152.576 219.136c0 48.128-38.912 87.04-87.04 87.04H207.872c-48.128 0-87.04-38.912-87.04-87.04V169.984c0-48.128 38.912-87.04 87.04-87.04h414.72V38.912H205.824c-70.656 0-129.024 58.368-129.024 130.048V870.4c0 71.68 57.344 130.048 129.024 130.048h617.472C893.952 1000.448 952.32 942.08 952.32 870.4V366.592h-44.032v502.784z" p-id="8480"></path></svg>