<?xml version="1.0" standalone="no"?><!DOCTYPE svg PUBLIC "-//W3C//DTD SVG 1.1//EN" "http://www.w3.org/Graphics/SVG/1.1/DTD/svg11.dtd"><svg t="1571591050796" class="icon" viewBox="0 0 1024 1024" version="1.1" xmlns="http://www.w3.org/2000/svg" p-id="20154" xmlns:xlink="http://www.w3.org/1999/xlink" width="16" height="16"><defs><style type="text/css"></style></defs><path d="M643.057 228.057c-12.076 0-21.849 9.773-21.849 21.839s9.773 21.839 21.849 21.839c132.479 0 240.254 107.785 240.254 240.264S775.536 752.264 643.057 752.264H512c-0.381 0-0.751 0.01-1.122 0.03-0.32 0.01-0.651 0.04-0.971 0.07-0.2 0.02-0.411 0.04-0.611 0.07-0.491 0.06-0.981 0.14-1.462 0.23-0.25 0.05-0.501 0.1-0.751 0.16-0.15 0.03-0.29 0.06-0.441 0.1a29.65 29.65 0 0 0-1.722 0.51c-0.07 0.03-0.13 0.05-0.19 0.07-0.631 0.22-1.252 0.471-1.863 0.761-0.04 0.01-0.07 0.03-0.1 0.04-0.31 0.14-0.621 0.3-0.921 0.461-0.32 0.16-0.631 0.34-0.941 0.521-0.3 0.18-0.601 0.37-0.901 0.561-0.01 0.01-0.02 0.01-0.03 0.02-0.31 0.2-0.611 0.421-0.911 0.631a21.938 21.938 0 0 0-4.666 4.666c-0.21 0.3-0.431 0.601-0.631 0.911-0.01 0.01-0.01 0.02-0.02 0.03-0.19 0.3-0.381 0.601-0.561 0.901-0.18 0.31-0.361 0.621-0.521 0.941-0.16 0.3-0.31 0.601-0.451 0.901-0.03 0.07-0.07 0.14-0.09 0.21a18.43 18.43 0 0 0-0.721 1.772c-0.02 0.06-0.04 0.12-0.07 0.19a29.65 29.65 0 0 0-0.51 1.722c-0.04 0.15-0.07 0.29-0.1 0.441-0.06 0.25-0.11 0.501-0.16 0.751-0.09 0.481-0.17 0.971-0.23 1.462-0.03 0.2-0.05 0.411-0.07 0.611-0.03 0.32-0.06 0.651-0.07 0.971a20.702 20.702 0 0 0 0 2.243c0.01 0.32 0.04 0.651 0.07 0.971 0.02 0.2 0.04 0.411 0.07 0.611 0.06 0.491 0.14 0.981 0.23 1.462 0.05 0.25 0.1 0.501 0.16 0.751 0.03 0.15 0.06 0.29 0.1 0.441a29.65 29.65 0 0 0 0.51 1.722c0.03 0.07 0.05 0.13 0.07 0.19 0.11 0.32 0.23 0.631 0.36 0.951 0.11 0.28 0.23 0.551 0.361 0.831 0.03 0.07 0.06 0.14 0.09 0.2 0.14 0.3 0.29 0.601 0.451 0.901 0.16 0.32 0.34 0.631 0.521 0.941 0.18 0.3 0.37 0.601 0.561 0.901 0.01 0.01 0.01 0.02 0.02 0.03 0.21 0.31 0.421 0.621 0.651 0.921 0.23 0.32 0.481 0.631 0.741 0.941 0.431 0.531 0.901 1.051 1.402 1.552l65.528 65.528a21.768 21.768 0 0 0 15.441 6.399 21.768 21.768 0 0 0 15.441-6.399c8.532-8.532 8.532-22.35 0-30.882l-28.248-28.248h78.336C799.618 795.943 927 668.561 927 512c0-156.571-127.382-283.943-283.943-283.943zM380.943 752.264c-132.479 0-240.254-107.785-240.254-240.264s107.775-240.264 240.254-240.264H512c0.38 0 0.751-0.01 1.122-0.03 0.32-0.01 0.651-0.04 0.971-0.07 0.2-0.02 0.411-0.04 0.611-0.07 0.491-0.06 0.981-0.14 1.462-0.23 0.25-0.05 0.501-0.1 0.751-0.16 0.15-0.03 0.29-0.06 0.441-0.1 0.3-0.08 0.591-0.16 0.891-0.25 0.28-0.08 0.551-0.17 0.831-0.26 0.07-0.03 0.13-0.05 0.19-0.07 0.631-0.22 1.262-0.471 1.862-0.761 0.04-0.01 0.07-0.03 0.1-0.04 0.31-0.15 0.611-0.3 0.921-0.461 0.29-0.15 0.581-0.31 0.861-0.481l0.12-0.06c0.17-0.11 0.341-0.21 0.511-0.32 0.18-0.11 0.36-0.23 0.541-0.351 0.01-0.01 0.02-0.01 0.03-0.02a21.487 21.487 0 0 0 2.413-1.893c0.27-0.25 0.541-0.501 0.811-0.771 0.25-0.25 0.491-0.501 0.731-0.761 0.01-0.02 0.03-0.04 0.04-0.05 0.25-0.28 0.491-0.561 0.731-0.851 0.23-0.28 0.461-0.571 0.671-0.871 0.21-0.28 0.411-0.571 0.611-0.861 0.02-0.04 0.05-0.08 0.08-0.12 0.17-0.27 0.34-0.551 0.511-0.831 0.18-0.31 0.361-0.621 0.521-0.941a19.92 19.92 0 0 0 0.902-1.932c0.13-0.32 0.25-0.631 0.36-0.951 0.02-0.06 0.04-0.12 0.07-0.19 0.09-0.27 0.17-0.541 0.26-0.811 0.08-0.28 0.16-0.571 0.23-0.851 0.05-0.18 0.09-0.36 0.13-0.551 0.06-0.23 0.11-0.461 0.15-0.701 0.09-0.481 0.17-0.971 0.23-1.462 0.03-0.2 0.05-0.411 0.07-0.611 0.03-0.32 0.06-0.651 0.07-0.971a20.702 20.702 0 0 0 0-2.244c-0.01-0.32-0.04-0.651-0.07-0.971-0.02-0.2-0.04-0.411-0.07-0.611-0.06-0.491-0.14-0.981-0.23-1.462-0.04-0.24-0.09-0.471-0.15-0.701-0.04-0.19-0.08-0.371-0.13-0.551-0.07-0.28-0.15-0.571-0.23-0.851-0.09-0.27-0.17-0.541-0.26-0.811-0.03-0.07-0.05-0.13-0.07-0.19a18.43 18.43 0 0 0-0.721-1.772c-0.02-0.07-0.06-0.14-0.09-0.21-0.14-0.3-0.29-0.601-0.451-0.901-0.16-0.32-0.34-0.631-0.521-0.941-0.17-0.28-0.34-0.561-0.511-0.831a0.834 0.834 0 0 1-0.08-0.12c-0.2-0.29-0.401-0.581-0.611-0.861-0.21-0.3-0.441-0.591-0.671-0.871-0.24-0.29-0.481-0.571-0.731-0.851a0.218 0.218 0 0 1-0.04-0.05c-0.24-0.26-0.481-0.511-0.731-0.761l-0.18-0.18-65.348-65.348c-8.531-8.532-22.35-8.532-30.882 0-8.532 8.531-8.532 22.35 0 30.882l28.248 28.248h-78.336C224.372 228.057 97 355.429 97 512c0 156.561 127.372 283.943 283.943 283.943 12.066 0 21.849-9.763 21.849-21.839s-9.783-21.84-21.849-21.84z" p-id="20155"></path></svg>