<?xml version="1.0" standalone="no"?><!DOCTYPE svg PUBLIC "-//W3C//DTD SVG 1.1//EN" "http://www.w3.org/Graphics/SVG/1.1/DTD/svg11.dtd"><svg t="1571642277054" class="icon" viewBox="0 0 1122 1024" version="1.1" xmlns="http://www.w3.org/2000/svg" p-id="12839" xmlns:xlink="http://www.w3.org/1999/xlink" width="17.53125" height="16"><defs><style type="text/css"></style></defs><path d="M561.403509 512m-244.472515 0a244.472515 244.472515 0 1 0 488.945029 0 244.472515 244.472515 0 1 0-488.945029 0Z" fill="#d81e06" p-id="12840"></path><path d="M561.403509 985.674854c-261.239766 0-473.674854-212.584795-473.674854-473.674854S300.163743 38.325146 561.403509 38.325146s473.674854 212.584795 473.674854 473.674854S822.643275 985.674854 561.403509 985.674854zM561.403509 68.865497C317.080702 68.865497 118.269006 267.677193 118.269006 512s198.811696 443.134503 443.134503 443.134503 443.134503-198.811696 443.134503-443.134503S805.726316 68.865497 561.403509 68.865497z" fill="#d81e06" p-id="12841"></path></svg>